<svg xmlns="http://www.w3.org/2000/svg" xmlns:xlink="http://www.w3.org/1999/xlink" viewBox="0 895 1190 320" role="img" aria-label="RAKEZ">
<defs><style>.cls-1{fill:url(#linear-gradient);}.cls-2{fill:url(#linear-gradient-2);}.cls-3{fill:url(#linear-gradient-3);}.cls-4{fill:url(#linear-gradient-4);}.cls-5{fill:url(#linear-gradient-5);}.cls-6{fill:url(#linear-gradient-6);}.cls-7{fill:#073e61;fill-rule:evenodd;}.cls-8{fill:#41c0be;}</style><linearGradient id="linear-gradient" x1="688.32" y1="8.97" x2="1118.14" y2="753.44" gradientUnits="userSpaceOnUse"><stop offset="0" stop-color="#8dd3d3"/><stop offset="1" stop-color="#00b3ae"/></linearGradient><linearGradient id="linear-gradient-2" x1="375.89" y1="221.55" x2="68.8" y2="753.44" gradientUnits="userSpaceOnUse"><stop offset="0" stop-color="#86d3e6"/><stop offset="1" stop-color="#00ade5"/></linearGradient><linearGradient id="linear-gradient-3" x1="1186.93" y1="756.3" x2="617.89" y2="756.3" xlink:href="#linear-gradient"/><linearGradient id="linear-gradient-4" x1="0" y1="756.3" x2="323.73" y2="756.3" xlink:href="#linear-gradient-2"/><linearGradient id="linear-gradient-5" x1="290.18" y1="814.35" x2="721.55" y2="67.2" xlink:href="#linear-gradient"/><linearGradient id="linear-gradient-6" x1="651.19" y1="814.36" x2="342.66" y2="279.98" xlink:href="#linear-gradient-2"/></defs>
<g>
<path class="cls-7" d="M317.87,907.53H228.46V960.2h88.8v0a34.37,34.37,0,0,1,34.37,34.37v34H244.23a86.1,86.1,0,0,0,0,172.19H397.68a6.3,6.3,0,0,0,6.28-6.31V993.62A86.09,86.09,0,0,0,317.87,907.53Zm33.83,235a6.28,6.28,0,0,1-6.3,6.3H245.27a34.38,34.38,0,1,1,0-68.76H351.7Z"/><path class="cls-7" d="M197.63,960.2V907.52H86.09A86.09,86.09,0,0,0,0,993.61v200.83a6.29,6.29,0,0,0,6.28,6.31h46V994.53a34.38,34.38,0,0,1,34.39-34.36v0Z"/><path class="cls-7" d="M1186.91,907.58H940.84v46a6.29,6.29,0,0,0,6.31,6.29h168.34L941,1148.4l-.13,52.34h239.79a6.28,6.28,0,0,0,6.28-6.3v-46H1012.67l174.24-188.5Z"/><path class="cls-7" d="M823.9,1079.74a86.08,86.08,0,1,0,0-172.16H750.26a86.08,86.08,0,0,0-86.08,86.09v121a86.08,86.08,0,0,0,86.08,86.09H910v-52.68H750.88v0a34.37,34.37,0,0,1-34.38-34.36v-34Zm-107.45-51.48V993.89h0a34.39,34.39,0,0,1,34.38-34.37h72a34.37,34.37,0,0,1,0,68.74Z"/><path class="cls-7" d="M584.43,907.52l-97.3,105.1v-98.8a6.28,6.28,0,0,0-6.27-6.3H434.8v286.92a6.31,6.31,0,0,0,6.29,6.31h46v-105l97,105h71.71l-135.64-146.5L655.87,907.52Z"/>
</g>
</svg>